<mxfile host="app.diagrams.net" modified="2022-06-07T05:30:10.863Z" agent="5.0 (Windows NT 10.0; Win64; x64) AppleWebKit/537.36 (KHTML, like Gecko) Chrome/100.0.4896.151 Whale/3.14.134.62 Safari/537.36" etag="Wu8eB34NCGNudw-K5PvD" version="19.0.1" type="github">
  <diagram id="C5RBs43oDa-KdzZeNtuy" name="Page-1">
    <mxGraphModel dx="735" dy="437" grid="1" gridSize="10" guides="1" tooltips="1" connect="1" arrows="1" fold="1" page="1" pageScale="1" pageWidth="827" pageHeight="1169" math="0" shadow="0">
      <root>
        <mxCell id="WIyWlLk6GJQsqaUBKTNV-0" />
        <mxCell id="WIyWlLk6GJQsqaUBKTNV-1" parent="WIyWlLk6GJQsqaUBKTNV-0" />
        <mxCell id="22Y69lhMLeswvPPlSt1S-0" value="src node : 1 , dest node : 2&lt;br&gt;src에서 dest로 &quot;hello&quot; 전송&lt;br&gt;받는 쪽에서 패킷 2번 받지 못해 retransmission 2회 발생 후&amp;nbsp;&lt;br&gt;3번째에 ack수신 후 성공" style="rounded=0;whiteSpace=wrap;html=1;" vertex="1" parent="WIyWlLk6GJQsqaUBKTNV-1">
          <mxGeometry x="40" y="40" width="450" height="60" as="geometry" />
        </mxCell>
        <mxCell id="22Y69lhMLeswvPPlSt1S-1" value="1.메세지 입력&lt;br&gt;arqMain_processInputWord()" style="rounded=0;whiteSpace=wrap;html=1;" vertex="1" parent="WIyWlLk6GJQsqaUBKTNV-1">
          <mxGeometry x="40" y="160" width="190" height="60" as="geometry" />
        </mxCell>
        <mxCell id="22Y69lhMLeswvPPlSt1S-5" value="" style="endArrow=classic;html=1;rounded=0;exitX=0.5;exitY=1;exitDx=0;exitDy=0;" edge="1" parent="WIyWlLk6GJQsqaUBKTNV-1" source="22Y69lhMLeswvPPlSt1S-1">
          <mxGeometry width="50" height="50" relative="1" as="geometry">
            <mxPoint x="250" y="350" as="sourcePoint" />
            <mxPoint x="135" y="280" as="targetPoint" />
          </mxGeometry>
        </mxCell>
        <mxCell id="22Y69lhMLeswvPPlSt1S-9" value="2.setEventFlag=&lt;br&gt;setEvent_dataToSend" style="text;html=1;strokeColor=none;fillColor=none;align=center;verticalAlign=middle;whiteSpace=wrap;rounded=0;" vertex="1" parent="WIyWlLk6GJQsqaUBKTNV-1">
          <mxGeometry x="170" y="240" width="60" height="30" as="geometry" />
        </mxCell>
        <mxCell id="22Y69lhMLeswvPPlSt1S-31" value="Dest" style="swimlane;" vertex="1" parent="WIyWlLk6GJQsqaUBKTNV-1">
          <mxGeometry x="467" y="320" width="360" height="2010" as="geometry" />
        </mxCell>
        <mxCell id="22Y69lhMLeswvPPlSt1S-96" value="17. IDLE 상태의 dest에게 메세지 도착.&lt;br&gt;arqLLI_dataIndFunc() 에서&amp;nbsp;&lt;br&gt;eventFlag = arqEvent_dataRcvd" style="rounded=0;whiteSpace=wrap;html=1;" vertex="1" parent="22Y69lhMLeswvPPlSt1S-31">
          <mxGeometry x="20" y="1380" width="320" height="80" as="geometry" />
        </mxCell>
        <mxCell id="22Y69lhMLeswvPPlSt1S-92" value="" style="shape=flexArrow;endArrow=classic;html=1;rounded=0;fontSize=12;" edge="1" parent="22Y69lhMLeswvPPlSt1S-31" target="22Y69lhMLeswvPPlSt1S-96">
          <mxGeometry width="50" height="50" relative="1" as="geometry">
            <mxPoint x="-288" y="1315" as="sourcePoint" />
            <mxPoint x="182" y="1375" as="targetPoint" />
          </mxGeometry>
        </mxCell>
        <mxCell id="22Y69lhMLeswvPPlSt1S-97" value="main_state = IDLE" style="text;html=1;strokeColor=none;fillColor=none;align=center;verticalAlign=middle;whiteSpace=wrap;rounded=0;fontSize=12;" vertex="1" parent="22Y69lhMLeswvPPlSt1S-31">
          <mxGeometry x="83" y="1340" width="160" height="30" as="geometry" />
        </mxCell>
        <mxCell id="22Y69lhMLeswvPPlSt1S-100" value="18.if(arqEventFlag(_dataRcvd)&amp;nbsp;&lt;br&gt;&amp;nbsp;실행" style="text;html=1;strokeColor=none;fillColor=none;align=center;verticalAlign=middle;whiteSpace=wrap;rounded=0;fontSize=12;" vertex="1" parent="22Y69lhMLeswvPPlSt1S-31">
          <mxGeometry x="183" y="1480" width="170" height="30" as="geometry" />
        </mxCell>
        <mxCell id="22Y69lhMLeswvPPlSt1S-102" value="19. 받은 메세지 내용 출력&lt;br&gt;&quot;RCVD from 1 : hello (length:6, seq:0)&quot;&lt;br&gt;&lt;br&gt;20. encodeAck()로 ACKtype과 seqNum으로 ACK를 &lt;br&gt;생성한 후 sendData()로 ACK를 보냄" style="rounded=0;whiteSpace=wrap;html=1;" vertex="1" parent="22Y69lhMLeswvPPlSt1S-31">
          <mxGeometry x="13" y="1530" width="320" height="120" as="geometry" />
        </mxCell>
        <mxCell id="22Y69lhMLeswvPPlSt1S-105" value="23. TX 상태에서 TimerStatus == 0이므로&amp;nbsp;&lt;br&gt;IDLE상태로 변경" style="rounded=0;whiteSpace=wrap;html=1;" vertex="1" parent="22Y69lhMLeswvPPlSt1S-31">
          <mxGeometry x="20" y="1850" width="320" height="60" as="geometry" />
        </mxCell>
        <mxCell id="22Y69lhMLeswvPPlSt1S-107" value="main_state = TX" style="text;html=1;strokeColor=none;fillColor=none;align=center;verticalAlign=middle;whiteSpace=wrap;rounded=0;fontSize=12;" vertex="1" parent="22Y69lhMLeswvPPlSt1S-31">
          <mxGeometry x="183" y="1800" width="97" height="30" as="geometry" />
        </mxCell>
        <mxCell id="22Y69lhMLeswvPPlSt1S-110" value="&lt;span style=&quot;&quot;&gt;21. 이후 arqLLI_dataCnfFunc()에서&amp;nbsp;&lt;/span&gt;&lt;br style=&quot;&quot;&gt;&lt;span style=&quot;&quot;&gt;eventFlag = ackTxDone&lt;/span&gt;&lt;br style=&quot;&quot;&gt;&lt;br style=&quot;&quot;&gt;&lt;span style=&quot;&quot;&gt;22.main_state = TX로 변경&lt;/span&gt;" style="rounded=0;whiteSpace=wrap;html=1;fontSize=12;" vertex="1" parent="22Y69lhMLeswvPPlSt1S-31">
          <mxGeometry x="20" y="1710" width="320" height="60" as="geometry" />
        </mxCell>
        <mxCell id="22Y69lhMLeswvPPlSt1S-111" value="" style="endArrow=classic;html=1;rounded=0;fontSize=12;exitX=0.476;exitY=1.05;exitDx=0;exitDy=0;exitPerimeter=0;entryX=0.48;entryY=0.028;entryDx=0;entryDy=0;entryPerimeter=0;" edge="1" parent="22Y69lhMLeswvPPlSt1S-31" source="22Y69lhMLeswvPPlSt1S-110" target="22Y69lhMLeswvPPlSt1S-105">
          <mxGeometry width="50" height="50" relative="1" as="geometry">
            <mxPoint x="3" y="1910" as="sourcePoint" />
            <mxPoint x="53" y="1860" as="targetPoint" />
          </mxGeometry>
        </mxCell>
        <mxCell id="22Y69lhMLeswvPPlSt1S-104" value="" style="endArrow=classic;html=1;rounded=0;fontSize=12;exitX=0.5;exitY=1;exitDx=0;exitDy=0;entryX=0.478;entryY=-0.072;entryDx=0;entryDy=0;entryPerimeter=0;" edge="1" parent="22Y69lhMLeswvPPlSt1S-31" source="22Y69lhMLeswvPPlSt1S-102" target="22Y69lhMLeswvPPlSt1S-110">
          <mxGeometry width="50" height="50" relative="1" as="geometry">
            <mxPoint x="3" y="1740" as="sourcePoint" />
            <mxPoint x="173" y="1690" as="targetPoint" />
          </mxGeometry>
        </mxCell>
        <mxCell id="22Y69lhMLeswvPPlSt1S-41" value="Src" style="swimlane;" vertex="1" parent="WIyWlLk6GJQsqaUBKTNV-1">
          <mxGeometry x="10" y="290" width="380" height="2160" as="geometry" />
        </mxCell>
        <mxCell id="22Y69lhMLeswvPPlSt1S-42" value="3.Idle 상태에서&amp;nbsp;&lt;br&gt;else if(aqrEvent_checkEventFlag(&lt;br&gt;arqEvent_dataToSend) 실행" style="rounded=0;whiteSpace=wrap;html=1;" vertex="1" parent="22Y69lhMLeswvPPlSt1S-41">
          <mxGeometry x="10" y="70" width="320" height="60" as="geometry" />
        </mxCell>
        <mxCell id="22Y69lhMLeswvPPlSt1S-43" value="&lt;span style=&quot;&quot;&gt;4.arqMsg_encodeData()&lt;/span&gt;&lt;br style=&quot;&quot;&gt;&lt;span style=&quot;&quot;&gt;arqType, seqNum, originWord를 담은 PDU 생성&lt;/span&gt;" style="rounded=0;whiteSpace=wrap;html=1;" vertex="1" parent="22Y69lhMLeswvPPlSt1S-41">
          <mxGeometry x="10" y="180" width="320" height="60" as="geometry" />
        </mxCell>
        <mxCell id="22Y69lhMLeswvPPlSt1S-57" value="6.이후 seqNum 1증가후 retxCnt를 0으로 초기화&lt;br&gt;&lt;br&gt;7.mainstate를 TX로 변경 후 eventFlag를 clear" style="rounded=0;whiteSpace=wrap;html=1;" vertex="1" parent="22Y69lhMLeswvPPlSt1S-41">
          <mxGeometry x="10" y="390" width="320" height="60" as="geometry" />
        </mxCell>
        <mxCell id="22Y69lhMLeswvPPlSt1S-58" value="" style="endArrow=classic;html=1;rounded=0;fontSize=36;exitX=0.5;exitY=1;exitDx=0;exitDy=0;" edge="1" parent="22Y69lhMLeswvPPlSt1S-41" source="22Y69lhMLeswvPPlSt1S-42" target="22Y69lhMLeswvPPlSt1S-43">
          <mxGeometry width="50" height="50" relative="1" as="geometry">
            <mxPoint x="280" y="360" as="sourcePoint" />
            <mxPoint x="330" y="310" as="targetPoint" />
          </mxGeometry>
        </mxCell>
        <mxCell id="22Y69lhMLeswvPPlSt1S-59" value="" style="endArrow=classic;html=1;rounded=0;fontSize=36;exitX=0.5;exitY=1;exitDx=0;exitDy=0;entryX=0.5;entryY=0;entryDx=0;entryDy=0;" edge="1" parent="22Y69lhMLeswvPPlSt1S-41" source="22Y69lhMLeswvPPlSt1S-43" target="22Y69lhMLeswvPPlSt1S-57">
          <mxGeometry width="50" height="50" relative="1" as="geometry">
            <mxPoint x="150" y="140" as="sourcePoint" />
            <mxPoint x="150" y="190" as="targetPoint" />
          </mxGeometry>
        </mxCell>
        <mxCell id="22Y69lhMLeswvPPlSt1S-45" value="5.arqLLI_sendData로&amp;nbsp;&lt;br&gt;dest에게 전송 -&amp;gt; 실패" style="text;html=1;strokeColor=none;fillColor=none;align=center;verticalAlign=middle;whiteSpace=wrap;rounded=0;" vertex="1" parent="22Y69lhMLeswvPPlSt1S-41">
          <mxGeometry x="180" y="320" width="190" height="30" as="geometry" />
        </mxCell>
        <mxCell id="22Y69lhMLeswvPPlSt1S-63" style="edgeStyle=orthogonalEdgeStyle;rounded=0;orthogonalLoop=1;jettySize=auto;html=1;exitX=0.5;exitY=1;exitDx=0;exitDy=0;fontSize=36;" edge="1" parent="22Y69lhMLeswvPPlSt1S-41" source="22Y69lhMLeswvPPlSt1S-45" target="22Y69lhMLeswvPPlSt1S-45">
          <mxGeometry relative="1" as="geometry" />
        </mxCell>
        <mxCell id="22Y69lhMLeswvPPlSt1S-66" value="8. PDU 전송을 끝내고 TX상태에서&amp;nbsp;&lt;br&gt;else if (argEvent_checkEventFlag(&lt;br&gt;arqEvent_dataTxDone)) 실행후&lt;br&gt;&lt;br&gt;9. main_state = ACK 이후&amp;nbsp;&lt;br&gt;arqTimer()실행" style="rounded=0;whiteSpace=wrap;html=1;" vertex="1" parent="22Y69lhMLeswvPPlSt1S-41">
          <mxGeometry x="10" y="530" width="320" height="100" as="geometry" />
        </mxCell>
        <mxCell id="22Y69lhMLeswvPPlSt1S-67" value="" style="endArrow=classic;html=1;rounded=0;fontSize=36;exitX=0.5;exitY=1;exitDx=0;exitDy=0;entryX=0.5;entryY=0;entryDx=0;entryDy=0;" edge="1" parent="22Y69lhMLeswvPPlSt1S-41" source="22Y69lhMLeswvPPlSt1S-57" target="22Y69lhMLeswvPPlSt1S-66">
          <mxGeometry width="50" height="50" relative="1" as="geometry">
            <mxPoint x="280" y="580" as="sourcePoint" />
            <mxPoint x="330" y="530" as="targetPoint" />
          </mxGeometry>
        </mxCell>
        <mxCell id="22Y69lhMLeswvPPlSt1S-69" value="main_state&amp;nbsp; = TX&lt;br&gt;retx = 0" style="text;html=1;strokeColor=none;fillColor=none;align=center;verticalAlign=middle;whiteSpace=wrap;rounded=0;fontSize=12;" vertex="1" parent="22Y69lhMLeswvPPlSt1S-41">
          <mxGeometry x="190" y="480" width="100" height="30" as="geometry" />
        </mxCell>
        <mxCell id="22Y69lhMLeswvPPlSt1S-72" value="main_state&amp;nbsp; = ACK" style="text;html=1;strokeColor=none;fillColor=none;align=center;verticalAlign=middle;whiteSpace=wrap;rounded=0;fontSize=12;" vertex="1" parent="22Y69lhMLeswvPPlSt1S-41">
          <mxGeometry x="190" y="660" width="110" height="30" as="geometry" />
        </mxCell>
        <mxCell id="22Y69lhMLeswvPPlSt1S-74" value="" style="endArrow=classic;html=1;rounded=0;fontSize=12;exitX=0.5;exitY=1;exitDx=0;exitDy=0;" edge="1" parent="22Y69lhMLeswvPPlSt1S-41" source="22Y69lhMLeswvPPlSt1S-66">
          <mxGeometry width="50" height="50" relative="1" as="geometry">
            <mxPoint x="100" y="750" as="sourcePoint" />
            <mxPoint x="170" y="710" as="targetPoint" />
          </mxGeometry>
        </mxCell>
        <mxCell id="22Y69lhMLeswvPPlSt1S-76" value="10.&amp;nbsp; dest로부터 ACK를 수신 대기&lt;br&gt;&lt;br&gt;11. ARQTIMER_MINWAITTIME&amp;nbsp;&lt;br&gt;+ rand() % (ARQTIMER_MAXWAITTIME&lt;br&gt;&amp;nbsp;- ARQTIMER_MINWAITTIME) 만큼 대기" style="rounded=0;whiteSpace=wrap;html=1;" vertex="1" parent="22Y69lhMLeswvPPlSt1S-41">
          <mxGeometry x="10" y="710" width="320" height="80" as="geometry" />
        </mxCell>
        <mxCell id="22Y69lhMLeswvPPlSt1S-79" value="12.대기 후 arqTimer_timeoutHandler() 실행&lt;br&gt;eventFlag = arqEvent_arqTimeout&lt;br&gt;&lt;br&gt;13.ACK상태에서 else if(arqEvent_arqTimeout) 실행&lt;br&gt;timeout메세지를 출력 후 arqLLI_sendData 재실행&lt;br&gt;retxCnt + 1 후 mainState를 TX상태로 변경" style="rounded=0;whiteSpace=wrap;html=1;" vertex="1" parent="22Y69lhMLeswvPPlSt1S-41">
          <mxGeometry x="10" y="850" width="320" height="110" as="geometry" />
        </mxCell>
        <mxCell id="22Y69lhMLeswvPPlSt1S-83" value="arqLLI_sendData로&amp;nbsp;&lt;br&gt;dest에게 전송 -&amp;gt; 실패" style="text;html=1;strokeColor=none;fillColor=none;align=center;verticalAlign=middle;whiteSpace=wrap;rounded=0;" vertex="1" parent="22Y69lhMLeswvPPlSt1S-41">
          <mxGeometry x="190" y="1020" width="190" height="30" as="geometry" />
        </mxCell>
        <mxCell id="22Y69lhMLeswvPPlSt1S-86" value="main_state = TX&lt;br&gt;retxCnt = 1" style="text;html=1;strokeColor=none;fillColor=none;align=center;verticalAlign=middle;whiteSpace=wrap;rounded=0;fontSize=12;" vertex="1" parent="22Y69lhMLeswvPPlSt1S-41">
          <mxGeometry x="20" y="1000" width="120" height="30" as="geometry" />
        </mxCell>
        <mxCell id="22Y69lhMLeswvPPlSt1S-87" value="14.PDU 전송 완료, main_state = ACK후 다시 arqTimer() 재시작, ACK 수신 대기" style="rounded=0;whiteSpace=wrap;html=1;" vertex="1" parent="22Y69lhMLeswvPPlSt1S-41">
          <mxGeometry x="10" y="1090" width="320" height="40" as="geometry" />
        </mxCell>
        <mxCell id="22Y69lhMLeswvPPlSt1S-89" value="15.timer 다시 만료. timeout 메세지 출력 후 &lt;br&gt;다시 sendData() 실행 후에&lt;br&gt;retxCnt + 1 후 mainState는 TX로 변경&amp;nbsp;" style="rounded=0;whiteSpace=wrap;html=1;" vertex="1" parent="22Y69lhMLeswvPPlSt1S-41">
          <mxGeometry x="10" y="1190" width="320" height="90" as="geometry" />
        </mxCell>
        <mxCell id="22Y69lhMLeswvPPlSt1S-91" value="main_state = TX&lt;br&gt;retxCnt = 2" style="text;html=1;strokeColor=none;fillColor=none;align=center;verticalAlign=middle;whiteSpace=wrap;rounded=0;fontSize=12;" vertex="1" parent="22Y69lhMLeswvPPlSt1S-41">
          <mxGeometry x="30" y="1300" width="120" height="30" as="geometry" />
        </mxCell>
        <mxCell id="22Y69lhMLeswvPPlSt1S-93" value="arqLLI_sendData로&amp;nbsp;&lt;br&gt;dest에게 전송 -&amp;gt; 성공" style="text;html=1;strokeColor=none;fillColor=none;align=center;verticalAlign=middle;whiteSpace=wrap;rounded=0;" vertex="1" parent="22Y69lhMLeswvPPlSt1S-41">
          <mxGeometry x="180" y="1330" width="190" height="30" as="geometry" />
        </mxCell>
        <mxCell id="22Y69lhMLeswvPPlSt1S-94" value="16. PDU 전송이 끝난 후 main_state=ACK&lt;br&gt;3번째 TIMER 동작" style="rounded=0;whiteSpace=wrap;html=1;" vertex="1" parent="22Y69lhMLeswvPPlSt1S-41">
          <mxGeometry x="10" y="1360" width="320" height="90" as="geometry" />
        </mxCell>
        <mxCell id="22Y69lhMLeswvPPlSt1S-114" value="24. ACK 수신 후 dataIndFunc에서&amp;nbsp;&lt;br&gt;eventFlag = ackRcvd로 변경&lt;br&gt;&lt;br&gt;25. 이후 ACK state에서&amp;nbsp;&lt;br&gt;arqEvent_checkEventFlag(_ackRcvd) 실행&lt;br&gt;받은 ack를 저장 후 src에서 보낸 pdu의 seqNum과&lt;br&gt;받은 ack의 seqNum이 동일한지 확인&lt;br&gt;&lt;br&gt;26. 동일할 경우 ACK를 올바르게 수신했다는 메세지를&lt;br&gt;출력한 후 타이머를 멈추고 IDLE상태로 전환" style="rounded=0;whiteSpace=wrap;html=1;" vertex="1" parent="22Y69lhMLeswvPPlSt1S-41">
          <mxGeometry x="20" y="1850" width="320" height="170" as="geometry" />
        </mxCell>
        <mxCell id="22Y69lhMLeswvPPlSt1S-119" value="state = IDLE" style="rounded=0;whiteSpace=wrap;html=1;fontSize=12;" vertex="1" parent="22Y69lhMLeswvPPlSt1S-41">
          <mxGeometry x="130" y="2080" width="120" height="60" as="geometry" />
        </mxCell>
        <mxCell id="22Y69lhMLeswvPPlSt1S-116" value="" style="endArrow=classic;html=1;rounded=0;fontSize=12;exitX=0.524;exitY=1.014;exitDx=0;exitDy=0;exitPerimeter=0;" edge="1" parent="22Y69lhMLeswvPPlSt1S-41" source="22Y69lhMLeswvPPlSt1S-114">
          <mxGeometry width="50" height="50" relative="1" as="geometry">
            <mxPoint x="190" y="2090" as="sourcePoint" />
            <mxPoint x="188" y="2080" as="targetPoint" />
          </mxGeometry>
        </mxCell>
        <mxCell id="22Y69lhMLeswvPPlSt1S-60" value="" style="shape=flexArrow;endArrow=classic;html=1;rounded=0;fontSize=36;" edge="1" parent="WIyWlLk6GJQsqaUBKTNV-1">
          <mxGeometry width="50" height="50" relative="1" as="geometry">
            <mxPoint x="180" y="570" as="sourcePoint" />
            <mxPoint x="410" y="590" as="targetPoint" />
          </mxGeometry>
        </mxCell>
        <mxCell id="22Y69lhMLeswvPPlSt1S-77" value="" style="endArrow=classic;html=1;rounded=0;fontSize=12;exitX=0.5;exitY=1;exitDx=0;exitDy=0;" edge="1" parent="WIyWlLk6GJQsqaUBKTNV-1" source="22Y69lhMLeswvPPlSt1S-76">
          <mxGeometry width="50" height="50" relative="1" as="geometry">
            <mxPoint x="290" y="1100" as="sourcePoint" />
            <mxPoint x="180" y="1140" as="targetPoint" />
          </mxGeometry>
        </mxCell>
        <mxCell id="22Y69lhMLeswvPPlSt1S-82" value="" style="shape=flexArrow;endArrow=classic;html=1;rounded=0;fontSize=12;" edge="1" parent="WIyWlLk6GJQsqaUBKTNV-1">
          <mxGeometry width="50" height="50" relative="1" as="geometry">
            <mxPoint x="180" y="1260" as="sourcePoint" />
            <mxPoint x="420" y="1320" as="targetPoint" />
          </mxGeometry>
        </mxCell>
        <mxCell id="22Y69lhMLeswvPPlSt1S-84" value="" style="endArrow=classic;html=1;rounded=0;fontSize=12;" edge="1" parent="WIyWlLk6GJQsqaUBKTNV-1">
          <mxGeometry width="50" height="50" relative="1" as="geometry">
            <mxPoint x="180" y="1250" as="sourcePoint" />
            <mxPoint x="180" y="1380" as="targetPoint" />
          </mxGeometry>
        </mxCell>
        <mxCell id="22Y69lhMLeswvPPlSt1S-88" value="" style="endArrow=classic;html=1;rounded=0;fontSize=12;exitX=0.5;exitY=1;exitDx=0;exitDy=0;" edge="1" parent="WIyWlLk6GJQsqaUBKTNV-1" source="22Y69lhMLeswvPPlSt1S-87">
          <mxGeometry width="50" height="50" relative="1" as="geometry">
            <mxPoint x="260" y="1490" as="sourcePoint" />
            <mxPoint x="180" y="1480" as="targetPoint" />
          </mxGeometry>
        </mxCell>
        <mxCell id="22Y69lhMLeswvPPlSt1S-90" value="" style="endArrow=classic;html=1;rounded=0;fontSize=12;exitX=0.5;exitY=1;exitDx=0;exitDy=0;" edge="1" parent="WIyWlLk6GJQsqaUBKTNV-1" source="22Y69lhMLeswvPPlSt1S-89">
          <mxGeometry width="50" height="50" relative="1" as="geometry">
            <mxPoint x="260" y="1620" as="sourcePoint" />
            <mxPoint x="180" y="1650" as="targetPoint" />
          </mxGeometry>
        </mxCell>
        <mxCell id="22Y69lhMLeswvPPlSt1S-98" value="" style="endArrow=classic;html=1;rounded=0;fontSize=12;" edge="1" parent="WIyWlLk6GJQsqaUBKTNV-1">
          <mxGeometry width="50" height="50" relative="1" as="geometry">
            <mxPoint x="640" y="1760" as="sourcePoint" />
            <mxPoint x="640" y="1830" as="targetPoint" />
          </mxGeometry>
        </mxCell>
        <mxCell id="22Y69lhMLeswvPPlSt1S-112" value="" style="shape=flexArrow;endArrow=classic;html=1;rounded=0;fontSize=12;" edge="1" parent="WIyWlLk6GJQsqaUBKTNV-1">
          <mxGeometry width="50" height="50" relative="1" as="geometry">
            <mxPoint x="640" y="1970" as="sourcePoint" />
            <mxPoint x="190" y="2100" as="targetPoint" />
          </mxGeometry>
        </mxCell>
        <mxCell id="22Y69lhMLeswvPPlSt1S-113" value="" style="endArrow=classic;html=1;rounded=0;fontSize=12;exitX=0.529;exitY=1.011;exitDx=0;exitDy=0;exitPerimeter=0;" edge="1" parent="WIyWlLk6GJQsqaUBKTNV-1" source="22Y69lhMLeswvPPlSt1S-94">
          <mxGeometry width="50" height="50" relative="1" as="geometry">
            <mxPoint x="140" y="1950" as="sourcePoint" />
            <mxPoint x="190" y="2140" as="targetPoint" />
          </mxGeometry>
        </mxCell>
      </root>
    </mxGraphModel>
  </diagram>
</mxfile>
